<?xml version="1.0" encoding="UTF-8" standalone="no"?>
<!-- Created with Inkscape (http://www.inkscape.org/) -->

<svg
   xmlns:dc="http://purl.org/dc/elements/1.1/"
   xmlns:cc="http://creativecommons.org/ns#"
   xmlns:rdf="http://www.w3.org/1999/02/22-rdf-syntax-ns#"
   xmlns:svg="http://www.w3.org/2000/svg"
   xmlns="http://www.w3.org/2000/svg"
   xmlns:sodipodi="http://sodipodi.sourceforge.net/DTD/sodipodi-0.dtd"
   xmlns:inkscape="http://www.inkscape.org/namespaces/inkscape"
   width="64mm"
   height="64mm"
   viewBox="0 0 226.77165 226.77165"
   id="svg2"
   version="1.1"
   inkscape:version="0.91 r13725"
   sodipodi:docname="humedad.svg">
  <defs
     id="defs4" />
  <sodipodi:namedview
     id="base"
     pagecolor="#ffffff"
     bordercolor="#666666"
     borderopacity="1.0"
     inkscape:pageopacity="0.0"
     inkscape:pageshadow="2"
     inkscape:zoom="0.98994949"
     inkscape:cx="217.52156"
     inkscape:cy="151.93321"
     inkscape:document-units="px"
     inkscape:current-layer="layer1"
     showgrid="false"
     inkscape:window-width="1366"
     inkscape:window-height="721"
     inkscape:window-x="0"
     inkscape:window-y="24"
     inkscape:window-maximized="1" />
  <metadata
     id="metadata7">
    <rdf:RDF>
      <cc:Work
         rdf:about="">
        <dc:format>image/svg+xml</dc:format>
        <dc:type
           rdf:resource="http://purl.org/dc/dcmitype/StillImage" />
        <dc:title></dc:title>
      </cc:Work>
    </rdf:RDF>
  </metadata>
  <g
     inkscape:label="Capa 1"
     inkscape:groupmode="layer"
     id="layer1"
     transform="translate(0,-825.59055)">
    <g
       transform="matrix(7.1378653,0,0,7.1378653,-23.541771,-1044.0126)"
       id="layer1-5"
       inkscape:label="Capa 1">
      <path
         sodipodi:nodetypes="cscsssssssssscsssssssssc"
         inkscape:connector-curvature="0"
         id="path3691"
         d="m 22.229724,286.53476 c 0,0 -0.204439,0.94101 -0.188987,1.41741 0.01171,0.36118 0.212611,1.06306 0.212611,1.06306 0,0 -3.700541,0.97647 -5.850665,0.83934 -3.386955,-0.21601 -5.415248,-1.68491 -7.1238688,-3.08981 -2.8526866,-2.34561 -3.9036484,-5.48572 -4.4598564,-8.90223 -0.1933649,-1.18774 -0.14049,-2.84511 0.1185439,-3.86059 0.2590333,-1.01548 0.5824836,-2.38125 1.1192564,-3.45828 0.9991172,-2.00473 2.6711575,-3.64646 4.5476349,-4.86957 2.177323,-1.41921 4.723495,-2.155 7.322236,-2.19282 2.459511,-0.0358 5.203102,0.93886 7.012959,2.06442 1.623787,1.00985 3.4784,2.95664 4.593695,4.86097 0.758163,1.29454 1.152103,2.79726 1.403165,4.27631 0.193857,1.14205 -0.05011,3.55803 -0.05011,3.55803 0,0 -1.705453,-1.94157 -2.321906,-3.20724 -0.390266,-0.80127 -0.373345,-1.43883 -0.724658,-2.45543 -0.351312,-1.0166 -1.407651,-2.59004 -2.11508,-3.37438 -1.251003,-1.38701 -2.998871,-2.41979 -4.810852,-2.87315 -2.249665,-0.56287 -4.788097,-0.5075 -6.949007,0.33409 -2.107223,0.82068 -4.0129581,2.37327 -5.164509,4.31951 -1.3634957,2.30445 -1.7706553,4.83517 -1.3714352,7.48285 0.3164465,2.09872 1.7550356,4.64247 3.2666402,6.13237 1.553715,1.5314 3.541447,2.39843 5.694996,2.74693 2.063213,0.33388 5.839197,-0.81179 5.839197,-0.81179 z"
         style="fill:#000000;stroke:#000000;stroke-width:0.26458332px;stroke-linecap:butt;stroke-linejoin:miter;stroke-opacity:1" />
      <path
         sodipodi:nodetypes="ccscsscc"
         inkscape:connector-curvature="0"
         id="path4498"
         d="m 23.361273,278.75597 2.498131,0.91317 c 0,0 0.509421,-1.933 0.508159,-2.76735 -0.0018,-1.19033 -0.809915,-3.55516 -0.809915,-3.55516 -1.518937,1.35999 -1.572302,1.32103 -1.970239,1.91129 0,0 0.126164,1.00686 0.167519,1.69614 0.04136,0.68929 -0.262802,1.3647 -0.393656,1.80191 z"
         style="fill:#000000;fill-opacity:1;stroke:#000000;stroke-width:0.26458332px;stroke-linecap:butt;stroke-linejoin:miter;stroke-opacity:1" />
      <path
         transform="matrix(0.26458334,0,0,0.26458334,-2.0186107e-6,258.89998)"
         id="path4500"
         d="m 108.39258,72.572266 c 0,0 -10.5523,14.658816 -14.64258,23.035156 -2.456394,5.030358 -4.621444,10.651828 -3.214844,16.070308 1.076954,4.14864 1.85051,7.30048 5.179688,10 2.874334,2.33073 8.621476,4.75686 12.320316,4.64454 4.02206,-0.12208 8.25217,-2.31578 11.25,-5 2.6703,-2.39097 5.51244,-5.24241 6.25,-8.75 C 126.97407,105.7292 123.92643,100.46023 121.25,94 118.17268,86.572095 108.39258,72.572266 108.39258,72.572266 Z m -0.2207,17.30664 c -1e-5,0 4.80165,7.003202 6.3125,10.718754 1.314,3.23145 2.80996,5.86609 2.10351,9.28906 -0.36211,1.75453 -1.75734,3.18096 -3.06836,4.37695 -1.47182,1.34264 -3.54875,2.44112 -5.52344,2.50195 -1.81599,0.0562 -4.63764,-1.15639 -6.04882,-2.32226 -1.63451,-1.35031 -2.014229,-2.92677 -2.542973,-5.00195 -0.690588,-2.71038 0.372135,-5.52281 1.578123,-8.03907 2.00817,-4.189935 7.18946,-11.523434 7.18946,-11.523434 z"
         clip-path="none"
         mask="none"
         style="fill:#000000;fill-opacity:1;stroke:#000000;stroke-width:1.00157475;stroke-linecap:butt;stroke-linejoin:miter;stroke-miterlimit:4;stroke-dasharray:none;stroke-opacity:1"
         inkscape:connector-curvature="0" />
      <path
         sodipodi:nodetypes="cccccsssssccsssscsc"
         inkscape:connector-curvature="0"
         id="path4504"
         d="m 18.554242,274.27249 c -7.70084,0.89898 1.153773,9.2604 1.72529,1.81951 1.573402,-1.76487 4.997626,-5.07811 4.997626,-5.07811 l -1.771764,-1.7009 -0.614211,0.73233 c 0,0 -2.180079,-1.30056 -3.401786,-1.53553 -1.230704,-0.2367 -2.548138,-0.16839 -3.756138,0.16537 -1.293911,0.35749 -2.571783,0.98737 -3.543527,1.9135 -1.058736,1.00904 -1.794882,2.37217 -2.2678571,3.75614 -0.3537747,1.03518 -0.4568857,2.16894 -0.3779761,3.26005 0.04643,0.64201 0.4960942,1.86625 0.4960942,1.86625 l 2.22061,-0.77957 c 0,0 -0.440077,-1.94521 -0.283483,-2.90569 0.170726,-1.04716 0.595781,-2.11149 1.299294,-2.9057 0.871281,-0.9836 2.100712,-1.72384 3.378162,-2.03162 1.005227,-0.24219 2.098011,-0.0627 3.09468,0.21261 0.502394,0.13877 1.393787,0.70871 1.393787,0.70871 l -2.588801,2.50242 z"
         style="fill:#000000;fill-opacity:1;stroke:#000000;stroke-width:0.26458332px;stroke-linecap:butt;stroke-linejoin:miter;stroke-opacity:1" />
    </g>
  </g>
</svg>
