<?xml version="1.0" encoding="UTF-8" standalone="no"?>
<!-- Created with Inkscape (http://www.inkscape.org/) -->

<svg
   xmlns:dc="http://purl.org/dc/elements/1.1/"
   xmlns:cc="http://creativecommons.org/ns#"
   xmlns:rdf="http://www.w3.org/1999/02/22-rdf-syntax-ns#"
   xmlns:svg="http://www.w3.org/2000/svg"
   xmlns="http://www.w3.org/2000/svg"
   xmlns:sodipodi="http://sodipodi.sourceforge.net/DTD/sodipodi-0.dtd"
   xmlns:inkscape="http://www.inkscape.org/namespaces/inkscape"
   width="64mm"
   height="64mm"
   viewBox="0 0 226.77165 226.77165"
   id="svg2"
   version="1.1"
   inkscape:version="0.91 r13725"
   sodipodi:docname="lluvia.svg">
  <defs
     id="defs4" />
  <sodipodi:namedview
     id="base"
     pagecolor="#ffffff"
     bordercolor="#666666"
     borderopacity="1.0"
     inkscape:pageopacity="0.0"
     inkscape:pageshadow="2"
     inkscape:zoom="0.98994949"
     inkscape:cx="217.52156"
     inkscape:cy="151.93321"
     inkscape:document-units="px"
     inkscape:current-layer="layer1"
     showgrid="false"
     inkscape:window-width="1366"
     inkscape:window-height="721"
     inkscape:window-x="0"
     inkscape:window-y="24"
     inkscape:window-maximized="1" />
  <metadata
     id="metadata7">
    <rdf:RDF>
      <cc:Work
         rdf:about="">
        <dc:format>image/svg+xml</dc:format>
        <dc:type
           rdf:resource="http://purl.org/dc/dcmitype/StillImage" />
        <dc:title></dc:title>
      </cc:Work>
    </rdf:RDF>
  </metadata>
  <g
     inkscape:label="Capa 1"
     inkscape:groupmode="layer"
     id="layer1"
     transform="translate(0,-825.59055)">
    <g
       transform="matrix(5.9087543,0,0,5.9087543,0.44978292,-688.23789)"
       id="layer1-56"
       inkscape:label="Capa 1">
      <path
         mask="none"
         clip-path="none"
         sodipodi:nodetypes="csssssssc"
         inkscape:connector-curvature="0"
         id="path4500-2"
         d="m 14.785834,279.3557 c 0,0 -1.347265,1.99925 -1.869479,3.14161 -0.313611,0.68603 -0.589954,1.45282 -0.410372,2.1918 0.137497,0.56579 0.236116,0.99564 0.661157,1.36379 0.366971,0.31787 1.100858,0.64851 1.573097,0.63322 0.513503,-0.0167 1.053568,-0.31585 1.436307,-0.68191 0.340921,-0.32608 0.703782,-0.71497 0.797947,-1.19332 0.183707,-0.93325 -0.20546,-1.65171 -0.547164,-2.53277 -0.392887,-1.01302 -1.641493,-2.92242 -1.641493,-2.92242 z"
         style="fill:#000000;fill-opacity:1;stroke:#000000;stroke-width:0.26499999;stroke-linecap:butt;stroke-linejoin:miter;stroke-miterlimit:4;stroke-dasharray:none;stroke-opacity:1" />
      <path
         style="fill:#000000;fill-opacity:1;stroke:#000000;stroke-width:0.26499999;stroke-linecap:butt;stroke-linejoin:miter;stroke-miterlimit:4;stroke-dasharray:none;stroke-opacity:1"
         d="m 21.118353,272.98702 c 0,0 -1.347265,1.99924 -1.869479,3.14161 -0.313611,0.68603 -0.589954,1.45282 -0.410372,2.1918 0.137497,0.56579 0.236116,0.99564 0.661157,1.36379 0.366971,0.31787 1.100858,0.64851 1.573097,0.63322 0.513503,-0.0167 1.053568,-0.31585 1.436307,-0.68192 0.340921,-0.32607 0.703782,-0.71496 0.797947,-1.19331 0.183707,-0.93325 -0.20546,-1.65171 -0.547164,-2.53277 -0.392887,-1.01302 -1.641493,-2.92242 -1.641493,-2.92242 z"
         id="path4149"
         inkscape:connector-curvature="0"
         sodipodi:nodetypes="csssssssc"
         clip-path="none"
         mask="none" />
      <path
         mask="none"
         clip-path="none"
         sodipodi:nodetypes="csssssssc"
         inkscape:connector-curvature="0"
         id="path4151"
         d="m 24.963097,281.72983 c 0,0 -1.347266,1.99924 -1.869479,3.14161 -0.313611,0.68603 -0.589955,1.45282 -0.410373,2.1918 0.137498,0.56578 0.236116,0.99564 0.661157,1.36379 0.366971,0.31786 1.100859,0.64851 1.573097,0.63321 0.513504,-0.0167 1.053568,-0.31584 1.436308,-0.68191 0.34092,-0.32608 0.703782,-0.71496 0.797946,-1.19332 0.183708,-0.93325 -0.20546,-1.6517 -0.547163,-2.53276 -0.392887,-1.01302 -1.641493,-2.92242 -1.641493,-2.92242 z"
         style="fill:#000000;fill-opacity:1;stroke:#000000;stroke-width:0.26499999;stroke-linecap:butt;stroke-linejoin:miter;stroke-miterlimit:4;stroke-dasharray:none;stroke-opacity:1" />
      <path
         style="fill:#000000;fill-opacity:1;stroke:#000000;stroke-width:0.26499999;stroke-linecap:butt;stroke-linejoin:miter;stroke-miterlimit:4;stroke-dasharray:none;stroke-opacity:1"
         d="m 24.963097,281.72983 c 0,0 -1.347266,1.99924 -1.869479,3.14161 -0.313611,0.68603 -0.589955,1.45282 -0.410373,2.1918 0.137498,0.56578 0.236116,0.99564 0.661157,1.36379 0.366971,0.31786 1.100859,0.64851 1.573097,0.63321 0.513504,-0.0167 1.053568,-0.31584 1.436308,-0.68191 0.34092,-0.32608 0.703782,-0.71496 0.797946,-1.19332 0.183708,-0.93325 -0.20546,-1.6517 -0.547163,-2.53276 -0.392887,-1.01302 -1.641493,-2.92242 -1.641493,-2.92242 z"
         id="path4153"
         inkscape:connector-curvature="0"
         sodipodi:nodetypes="csssssssc"
         clip-path="none"
         mask="none" />
      <path
         sodipodi:nodetypes="csssssssssssssccssssssssssssssc"
         inkscape:connector-curvature="0"
         id="path4157"
         d="m 10.089423,286.10875 c 0,0 1.687686,-2.44304 0.761972,-2.42129 -4.7930806,0.1126 -5.4575822,-0.30216 -6.9466332,-2.38586 -0.9458764,-1.32361 -0.4116875,-3.61167 0.6054096,-4.88137 1.2732701,-1.58949 1.4808427,-1.94957 5.3005176,-1.42678 0.896659,0.12272 -1.2008849,-1.96748 3.57641,-3.76136 0.860137,-0.32298 -0.311157,-1.7856 1.978811,-4.22193 1.016223,-1.08117 5.119198,-1.52196 6.333237,-0.66887 1.950438,1.37054 2.045471,2.12016 2.848133,3.32059 0.372969,0.55781 1.693398,-1.12968 4.457195,-0.0904 1.048289,0.39418 2.0726,1.68234 2.498242,2.71826 0.334785,0.81479 -0.400205,1.68179 0.03914,2.30855 0.515896,0.73597 2.062588,1.30731 2.794171,2.38754 1.081494,1.5969 0.349045,4.07915 -0.482257,5.26445 -1.268568,1.80876 -5.552558,1.502 -5.552558,1.502 l 1.131843,2.38991 c 0,0 3.089991,-0.14631 4.34313,-0.93545 1.585208,-0.99825 3.206784,-2.58473 3.441094,-4.44335 0.336892,-2.67234 -0.44408,-5.3643 -3.301728,-7.41673 0,0 -0.480168,-2.75311 -1.308671,-3.76945 -1.151647,-1.41274 -2.846418,-2.38667 -4.610399,-2.84547 -0.734147,-0.19095 -1.834482,0.75346 -2.271791,0.13363 -1.241864,-1.76019 -3.240585,-3.221 -5.345391,-3.40769 -2.855112,-0.25324 -5.175683,0.36257 -7.116052,2.47225 -0.648505,0.70509 -1.804069,3.34087 -1.804069,3.34087 -3.1277533,1.35981 -2.3228484,2.93737 -3.4745038,3.14041 -3.6163633,0.63757 -3.7497236,0.71176 -5.1115297,2.13816 -1.4703825,1.54013 -2.12934129,4.05429 -1.737252,6.1472 0.3543454,1.89144 1.3828635,3.4988 2.906556,4.34313 0.812371,0.45017 0.3773473,0.84094 6.0469745,1.06907 z"
         style="fill:#000000;fill-rule:evenodd;stroke:#000000;stroke-width:0.26458335px;stroke-linecap:butt;stroke-linejoin:miter;stroke-opacity:1" />
    </g>
  </g>
</svg>
