<?xml version="1.0" encoding="UTF-8" standalone="no"?>
<!-- Created with Inkscape (http://www.inkscape.org/) -->

<svg
   xmlns:dc="http://purl.org/dc/elements/1.1/"
   xmlns:cc="http://creativecommons.org/ns#"
   xmlns:rdf="http://www.w3.org/1999/02/22-rdf-syntax-ns#"
   xmlns:svg="http://www.w3.org/2000/svg"
   xmlns="http://www.w3.org/2000/svg"
   xmlns:sodipodi="http://sodipodi.sourceforge.net/DTD/sodipodi-0.dtd"
   xmlns:inkscape="http://www.inkscape.org/namespaces/inkscape"
   width="64mm"
   height="64mm"
   viewBox="0 0 226.77165 226.77165"
   id="svg2"
   version="1.1"
   inkscape:version="0.91 r13725"
   sodipodi:docname="ph.svg">
  <defs
     id="defs4" />
  <sodipodi:namedview
     id="base"
     pagecolor="#ffffff"
     bordercolor="#666666"
     borderopacity="1.0"
     inkscape:pageopacity="0.0"
     inkscape:pageshadow="2"
     inkscape:zoom="0.98994949"
     inkscape:cx="217.52156"
     inkscape:cy="151.93321"
     inkscape:document-units="px"
     inkscape:current-layer="layer1"
     showgrid="false"
     inkscape:window-width="1366"
     inkscape:window-height="721"
     inkscape:window-x="0"
     inkscape:window-y="24"
     inkscape:window-maximized="1" />
  <metadata
     id="metadata7">
    <rdf:RDF>
      <cc:Work
         rdf:about="">
        <dc:format>image/svg+xml</dc:format>
        <dc:type
           rdf:resource="http://purl.org/dc/dcmitype/StillImage" />
        <dc:title></dc:title>
      </cc:Work>
    </rdf:RDF>
  </metadata>
  <g
     inkscape:label="Capa 1"
     inkscape:groupmode="layer"
     id="layer1"
     transform="translate(0,-825.59055)">
    <g
       transform="matrix(6.4635656,0,0,6.4635656,-10.404306,-856.99114)"
       id="layer1-1"
       inkscape:label="Capa 1">
      <path
         sodipodi:nodetypes="csscsccssssscsssccscscssssccssscccscssccccccccccccccccssccsccccssccscc"
         inkscape:connector-curvature="0"
         id="path4148"
         d="m 19.323883,264.1717 c -0.708852,-0.01 -1.416384,0.68521 -1.440665,1.39372 -0.175151,5.11079 0.144969,5.10659 -0.411418,5.11079 -4.782474,0.0361 -3.172156,0.04 -10.4319214,0.0863 -0.5414995,0.003 -1.0420097,1.01612 -1.076937,1.5565 -0.037752,0.5841 0.4877128,0.87303 0.9823691,1.13636 -0.3739137,0.86827 -0.7443267,0.36186 -0.3741373,0.86817 0.1764935,0.11881 0.718361,-0.0687 0.7048664,0.14366 -0.1050242,1.6525 0.2960169,3.05417 -0.1100709,4.56768 -0.7234169,2.69623 -3.3716029,4.90888 -4.1284301,7.59592 -0.2156635,0.76569 -0.4072448,1.3942 -0.013953,2.08566 0.3940413,0.69278 1.2820399,1.19313 2.078943,1.1808 3.6845865,-0.057 2.8955162,-0.0706 8.8351202,-0.047 0.799402,0.003 1.710972,-0.39476 2.149739,-1.06299 0.42843,-0.65249 0.362937,-1.59761 0.11834,-2.33887 -0.827065,-2.50645 -3.943482,-5.72503 -4.015776,-7.32307 -0.159799,-3.53234 -0.0072,-2.27198 -0.02377,-4.70152 -0.0014,-0.20122 0.594843,0.002 0.65319,-0.19017 0.06842,-0.22584 -0.559472,-0.75493 -0.323495,-0.75448 7.154161,0.0137 8.51034,0.10938 13.161988,0.0346 0.20712,-0.003 -0.381993,0.29463 -0.367419,0.50126 0.01264,0.17921 0.211806,0.31425 0.376721,0.38551 0.195204,0.0844 0.633461,-0.20073 0.637687,0.0119 0.03268,1.64416 0.240453,2.89762 -0.126091,4.30361 -0.730554,2.80227 -3.32142,4.80616 -4.158919,7.57835 -0.209555,0.69364 -0.447726,1.51533 -0.136943,2.1699 0.34064,0.71745 1.14315,1.39093 1.93735,1.38648 7.07469,-0.0398 5.244323,-0.0244 9.337933,-0.0336 0.747808,-0.002 1.538697,-0.53361 1.904275,-1.18597 0.348435,-0.62177 0.197024,-1.44886 0.01654,-2.13837 -0.752207,-2.87362 -3.451643,-4.83259 -4.226097,-7.7003 -0.37746,-1.39768 -0.133842,-4.34341 -0.133842,-4.34341 0.0922,-0.25685 0.47969,0.0823 0.718302,-0.0501 0.133688,-0.0742 0.256132,-0.23115 0.250629,-0.38395 -0.0063,-0.17473 -0.16908,-0.3248 -0.317291,-0.41755 -0.168476,-0.10543 -0.512784,0.068 -0.584462,-0.1173 -0.199615,-0.51624 0.999564,-0.78304 0.98547,-1.33635 -0.01521,-0.59726 -0.371523,-1.47976 -0.968934,-1.48674 -7.00414,-0.0818 -10.036006,0 -10.036006,0 -0.159267,-3.72796 -0.07242,-2.2806 -0.07242,-5.16247 -0.03671,-0.65103 -0.718461,-1.31378 -1.37046,-1.32292 z m -11.4060219,10.41125 3.5077969,0 0,4.41989 -3.5077969,0 z m 18.9223599,0.16537 3.355867,0 0,4.23126 -3.355867,0 z m -18.5409877,5.42809 c 0.1220066,0.008 0.2399671,0.0444 0.3234945,0.10645 0.212072,0.15743 0.2667756,0.54671 0.1415933,0.77928 -1.2729747,2.36496 -1.5208885,2.48658 -3.4964275,6.0477 -0.1075717,0.19391 -0.4560915,0.15439 -0.6614584,0.0708 -0.2175685,-0.0886 -0.5663853,-0.33988 -0.4485513,-0.54312 1.6685726,-2.87787 1.594366,-2.64831 3.6380209,-6.2606 0.085372,-0.1509 0.2999838,-0.21425 0.5033285,-0.2005 z m 18.8040207,0 c 0.122007,0.008 0.239966,0.0444 0.323495,0.10645 0.212069,0.15743 0.267293,0.54671 0.142111,0.77928 -1.272977,2.36496 -1.52089,2.48658 -3.496429,6.0477 -0.107572,0.19391 -0.456091,0.15439 -0.661458,0.0708 -0.217569,-0.0886 -0.566903,-0.33988 -0.449069,-0.54312 1.668574,-2.87787 1.594365,-2.64831 3.638022,-6.2606 0.08537,-0.1509 0.299982,-0.21425 0.503328,-0.2005 z"
         style="fill:#000000;fill-rule:evenodd;stroke:#000000;stroke-width:0.26458335px;stroke-linecap:butt;stroke-linejoin:miter;stroke-opacity:1" />
    </g>
  </g>
</svg>
