<?xml version="1.0" encoding="UTF-8" standalone="no"?>
<!-- Created with Inkscape (http://www.inkscape.org/) -->

<svg
   xmlns:dc="http://purl.org/dc/elements/1.1/"
   xmlns:cc="http://creativecommons.org/ns#"
   xmlns:rdf="http://www.w3.org/1999/02/22-rdf-syntax-ns#"
   xmlns:svg="http://www.w3.org/2000/svg"
   xmlns="http://www.w3.org/2000/svg"
   xmlns:sodipodi="http://sodipodi.sourceforge.net/DTD/sodipodi-0.dtd"
   xmlns:inkscape="http://www.inkscape.org/namespaces/inkscape"
   width="110mm"
   height="110mm"
   viewBox="0 0 389.76378 389.76378"
   id="svg2"
   version="1.1"
   inkscape:version="0.91 r13725"
   sodipodi:docname="logo.svg">
  <defs
     id="defs4" />
  <sodipodi:namedview
     id="base"
     pagecolor="#ffffff"
     bordercolor="#666666"
     borderopacity="1.0"
     inkscape:pageopacity="0.0"
     inkscape:pageshadow="2"
     inkscape:zoom="0.35"
     inkscape:cx="375"
     inkscape:cy="520"
     inkscape:document-units="px"
     inkscape:current-layer="layer1"
     showgrid="false"
     inkscape:window-width="1366"
     inkscape:window-height="721"
     inkscape:window-x="0"
     inkscape:window-y="24"
     inkscape:window-maximized="1" />
  <metadata
     id="metadata7">
    <rdf:RDF>
      <cc:Work
         rdf:about="">
        <dc:format>image/svg+xml</dc:format>
        <dc:type
           rdf:resource="http://purl.org/dc/dcmitype/StillImage" />
        <dc:title></dc:title>
      </cc:Work>
    </rdf:RDF>
  </metadata>
  <g
     inkscape:label="Capa 1"
     inkscape:groupmode="layer"
     id="layer1"
     transform="translate(0,-662.59843)">
    <g
       style="display:inline;fill:#000000"
       transform="matrix(3.1814804,0,0,3.1814804,-426.40404,14.571077)"
       id="g4992">
      <g
         style="display:inline;fill:#000000;fill-opacity:1;stroke:none"
         id="g4994"
         transform="matrix(0.32457505,0,0,0.32457505,345.72431,14.042453)">
        <ellipse
           style="opacity:1;fill:#000000;fill-opacity:1;stroke:none;stroke-width:2.00008273;stroke-miterlimit:4;stroke-dasharray:none;stroke-opacity:1"
           id="ellipse4996"
           cx="-337.70764"
           cy="865.20349"
           rx="14.867653"
           ry="18.556259"
           transform="matrix(0.94691618,0.32148055,-0.30926679,0.95097532,0,0)"
           inkscape:export-xdpi="90"
           inkscape:export-ydpi="90" />
        <g
           id="g4998"
           transform="matrix(0.29835772,1.6752112,-1.6752112,0.29835772,76.639851,-1122.5523)"
           style="fill:#000000;fill-opacity:1;stroke:none;stroke-width:0;stroke-miterlimit:4;stroke-dasharray:none;stroke-opacity:1"
           inkscape:export-xdpi="90"
           inkscape:export-ydpi="90">
          <g
             id="g5000"
             style="fill:#000000;fill-opacity:1;stroke:none;stroke-width:0;stroke-miterlimit:4;stroke-dasharray:none;stroke-opacity:1">
            <path
               id="path5002"
               d="m 1063.3964,509.62554 c -2.9783,-2.20941 -6.5556,-4.49722 -9.745,-6.01435 -2.922,-1.38055 -5.8881,-2.1584 -8.8984,-2.33355 -3.0103,-0.17515 -5.9953,0.25643 -8.9549,1.29474 -2.9597,1.03827 -5.3173,2.11162 -7.0728,3.22006 -4.1608,3.3982 -7.2224,-1.91906 -9.2522,-4.16993 -3.4401,-3.83175 -5.1533,-6.18301 -5.1398,-7.05378 0.01,-0.62895 0.2502,-1.17184 0.7207,-1.62867 3.6703,-3.51482 8.2545,-6.17755 13.7525,-7.98818 5.4979,-1.81059 10.9098,-2.56095 16.2357,-2.25107 5.3259,0.3099 10.7046,1.68814 16.1363,4.13471 5.4317,2.44657 9.9247,5.63746 13.4791,9.57266 0.4556,0.51071 0.6784,1.08058 0.6684,1.70959 -0.013,0.87075 -1.7966,3.01855 -5.3499,6.4434 -3.5531,3.42481 -5.7464,5.11296 -6.5799,5.06444 z m 19.272,-18.63434 c -0.5095,-0.0296 -1.039,-0.25409 -1.5887,-0.67346 -6.2193,-5.44611 -11.9965,-9.52279 -17.3314,-12.23002 -5.3349,-2.70728 -11.5221,-4.26572 -18.5615,-4.67532 -3.9365,-0.22905 -7.8929,0.0734 -11.8692,0.90732 -3.9763,0.83387 -7.4465,1.91511 -10.4107,3.24372 -2.9641,1.32859 -5.6157,2.67533 -7.9546,4.04024 -2.3389,1.36496 -4.1881,2.54051 -5.5478,3.52665 -1.3596,0.98617 -2.0857,1.47656 -2.1783,1.47115 -0.7874,-0.0458 -2.8895,-1.9839 -6.3064,-5.81429 -3.41687,-3.83036 -5.11857,-6.18095 -5.10497,-7.05177 0.01,-0.58051 0.2492,-1.09918 0.7195,-1.55601 6.21247,-6.03005 13.69957,-10.55756 22.46127,-13.58252 8.7617,-3.02493 17.5885,-4.2787 26.4804,-3.76131 8.8919,0.51738 17.6637,2.79515 26.3153,6.8333 8.6517,4.03815 15.9845,9.42797 21.9983,16.16945 0.4555,0.51074 0.6788,1.05634 0.6699,1.63679 -0.013,0.87083 -1.785,3.01931 -5.3151,6.44545 -3.5299,3.42619 -5.6885,5.11638 -6.4759,5.07059 z m 19.132,-18.56992 c -0.5094,-0.0297 -1.0155,-0.277 -1.5182,-0.74199 -8.1716,-8.07756 -16.685,-14.29869 -25.5402,-18.66339 -8.8551,-4.36472 -18.5622,-6.85428 -29.1214,-7.46867 -10.5592,-0.61438 -20.3262,0.74204 -29.3011,4.06925 -8.9749,3.32722 -17.66647,8.54727 -26.07457,15.66014 -0.5162,0.40573 -1.029,0.59378 -1.5385,0.56415 -0.7873,-0.0458 -2.9009,-1.98455 -6.341,-5.81625 -3.4401,-3.83174 -5.1534,-6.18302 -5.1398,-7.05384 0.01,-0.6289 0.2502,-1.17176 0.7206,-1.62857 8.8004,-8.49423 19.2133,-14.86095 31.23857,-19.10016 12.0253,-4.23923 24.267,-5.99641 36.725,-5.27154 12.4579,0.72488 24.6227,3.90217 36.4944,9.53187 11.8717,5.62969 22.0676,13.19557 30.5879,22.69763 0.4556,0.51072 0.6787,1.08045 0.6694,1.70918 -0.013,0.87082 -1.7967,3.01865 -5.35,6.44349 -3.553,3.4248 -5.7232,5.1143 -6.5105,5.06849 z"
               inkscape:connector-curvature="0"
               style="fill:#000000;fill-opacity:1;stroke:none;stroke-width:0;stroke-miterlimit:4;stroke-dasharray:none;stroke-opacity:1"
               sodipodi:nodetypes="ccscccccssscccccccsscsccccccssscccccccsssccsccsssccccc" />
          </g>
        </g>
        <path
           style="fill:#000000;fill-opacity:1;fill-rule:evenodd;stroke:none;stroke-width:1.79999995;stroke-linecap:butt;stroke-linejoin:miter;stroke-miterlimit:4;stroke-dasharray:none;stroke-opacity:1"
           d="m -541.67162,845.51862 11.09378,-2.3142 c 0,0 -10.74722,18.3609 -14.16715,26.8583 -3.08489,7.6652 -5.52051,15.168 -5.65198,21.5711 -0.13477,6.5914 2.8908,11.5842 5.01424,17.0025 2.18671,5.5794 5.61563,10.4537 7.95009,15.9503 1.38732,3.267 3.47059,6.1839 3.59717,10.1165 0.0384,1.2314 0.8321,2.3772 -0.89135,4.1596 -1.37878,1.4267 -4.0799,3.0091 -6.1204,3.7417 -2.73192,0.9809 -5.00932,0.8529 -6.02806,0.097 -1.36295,-1.0103 0.82782,-3.9808 0.60655,-5.6623 -2.00713,-15.2366 -16.01416,-24.0154 -17.45966,-39.538 -0.36879,-3.9597 0.52275,-8.5746 2.25987,-13.477 4.24794,-11.9876 19.7969,-38.5055 19.7969,-38.5055 z"
           id="path5004"
           inkscape:connector-curvature="0"
           sodipodi:nodetypes="ccsssssssssssc"
           inkscape:export-xdpi="90"
           inkscape:export-ydpi="90" />
        <ellipse
           transform="matrix(0.99777323,0.0666977,-0.21568964,0.97646197,0,0)"
           ry="20.203131"
           rx="16.78549"
           cy="713.93542"
           cx="-371.31854"
           id="ellipse5006"
           style="opacity:1;fill:#000000;fill-opacity:1;stroke:none;stroke-width:2.01142359;stroke-miterlimit:4;stroke-dasharray:none;stroke-opacity:1"
           inkscape:export-xdpi="90"
           inkscape:export-ydpi="90" />
        <ellipse
           transform="matrix(0.57925744,-0.81514466,0.82021855,0.57205029,0,0)"
           ry="17.092049"
           rx="13.798407"
           cy="-29.439495"
           cx="-893.58807"
           id="ellipse5008"
           style="opacity:1;fill:#000000;fill-opacity:1;stroke:none;stroke-width:2.00003886;stroke-miterlimit:4;stroke-dasharray:none;stroke-opacity:1"
           inkscape:export-xdpi="90"
           inkscape:export-ydpi="90" />
        <ellipse
           style="opacity:1;fill:#000000;fill-opacity:1;stroke:none;stroke-width:2.00003886;stroke-miterlimit:4;stroke-dasharray:none;stroke-opacity:1"
           id="ellipse5010"
           cx="-167.43236"
           cy="962.39917"
           rx="13.798407"
           ry="17.092049"
           transform="matrix(0.92541588,0.3789531,-0.37078179,0.92872001,0,0)"
           inkscape:export-xdpi="90"
           inkscape:export-ydpi="90" />
        <ellipse
           transform="matrix(0.38262937,-0.92390192,0.93019875,0.36705625,0,0)"
           ry="13.114493"
           rx="10.614202"
           cy="-210.44659"
           cx="-927.82776"
           id="ellipse5012"
           style="opacity:1;fill:#000000;fill-opacity:1;stroke:none;stroke-width:2.00014114;stroke-miterlimit:4;stroke-dasharray:none;stroke-opacity:1"
           inkscape:export-xdpi="90"
           inkscape:export-ydpi="90" />
        <ellipse
           style="opacity:1;fill:#000000;fill-opacity:1;stroke:none;stroke-width:2.00014114;stroke-miterlimit:4;stroke-dasharray:none;stroke-opacity:1"
           id="ellipse5014"
           cx="-949.27258"
           cy="-238.92889"
           rx="10.614202"
           ry="13.114493"
           transform="matrix(0.38262937,-0.92390192,0.93019875,0.36705625,0,0)"
           inkscape:export-xdpi="90"
           inkscape:export-ydpi="90" />
        <ellipse
           style="opacity:1;fill:#000000;fill-opacity:1;stroke:none;stroke-width:2.00005507;stroke-miterlimit:4;stroke-dasharray:none;stroke-opacity:1"
           id="ellipse5016"
           cx="-306.26114"
           cy="829.04956"
           rx="11.952662"
           ry="14.981911"
           transform="matrix(0.95060805,0.31039384,-0.32036267,0.94729497,0,0)"
           inkscape:export-xdpi="90"
           inkscape:export-ydpi="90" />
        <ellipse
           style="opacity:1;fill:#000000;fill-opacity:1;stroke:none;stroke-width:2.0076201;stroke-miterlimit:4;stroke-dasharray:none;stroke-opacity:1"
           id="ellipse5018"
           cx="-956.10651"
           cy="-310.34183"
           rx="10.641771"
           ry="13.615391"
           transform="matrix(0.25571165,-0.9667531,0.92800964,0.37255617,0,0)"
           inkscape:export-xdpi="90"
           inkscape:export-ydpi="90" />
        <ellipse
           style="opacity:1;fill:#000000;fill-opacity:1;stroke:none;stroke-width:2.00321651;stroke-miterlimit:4;stroke-dasharray:none;stroke-opacity:1"
           id="ellipse5020"
           cx="-240.465"
           cy="861.84106"
           rx="11.977588"
           ry="14.504801"
           transform="matrix(0.91152472,0.41124529,-0.33696281,0.94151796,0,0)"
           inkscape:export-xdpi="90"
           inkscape:export-ydpi="90" />
        <ellipse
           transform="matrix(0.92802444,0.37251932,-0.37722807,0.92612039,0,0)"
           ry="11.329561"
           rx="9.1060905"
           cy="888.71552"
           cx="-247.1478"
           id="ellipse5022"
           style="opacity:1;fill:#000000;fill-opacity:1;stroke:none;stroke-width:2.00001287;stroke-miterlimit:4;stroke-dasharray:none;stroke-opacity:1"
           inkscape:export-xdpi="90"
           inkscape:export-ydpi="90" />
        <ellipse
           style="opacity:1;fill:#000000;fill-opacity:1;stroke:none;stroke-width:2;stroke-miterlimit:4;stroke-dasharray:none;stroke-opacity:1"
           id="ellipse5024"
           cx="-1026.0741"
           cy="55.612698"
           rx="13.267093"
           ry="16.479977"
           transform="matrix(0.60463342,-0.79650387,0.79650387,0.60463342,0,0)"
           inkscape:export-xdpi="90"
           inkscape:export-ydpi="90" />
        <ellipse
           transform="matrix(0.92707463,0.37487682,-0.37487682,0.92707463,0,0)"
           ry="16.479975"
           rx="13.267093"
           cy="962.95642"
           cx="-216.25356"
           id="ellipse5026"
           style="opacity:1;fill:#000000;fill-opacity:1;stroke:none;stroke-width:2;stroke-miterlimit:4;stroke-dasharray:none;stroke-opacity:1"
           inkscape:export-xdpi="90"
           inkscape:export-ydpi="90" />
        <ellipse
           transform="matrix(0.87907817,0.47667763,-0.39944366,0.91675774,0,0)"
           ry="17.839489"
           rx="13.181558"
           cy="900.17859"
           cx="-186.60728"
           id="ellipse5028"
           style="opacity:1;fill:#000000;fill-opacity:1;stroke:none;stroke-width:2.00370264;stroke-miterlimit:4;stroke-dasharray:none;stroke-opacity:1"
           inkscape:export-xdpi="90"
           inkscape:export-ydpi="90" />
        <ellipse
           style="opacity:1;fill:#000000;fill-opacity:1;stroke:none;stroke-width:2.0000031;stroke-miterlimit:4;stroke-dasharray:none;stroke-opacity:1"
           id="ellipse5030"
           cx="-191.05258"
           cy="979.96167"
           rx="11.694043"
           ry="14.537494"
           transform="matrix(0.92754179,0.37371945,-0.37603267,0.92660641,0,0)"
           inkscape:export-xdpi="90"
           inkscape:export-ydpi="90" />
        <ellipse
           transform="matrix(0.93293958,0.36003297,-0.38947763,0.92103592,0,0)"
           ry="19.062197"
           rx="15.191921"
           cy="916.51733"
           cx="-237.71373"
           id="ellipse5032"
           style="opacity:1;fill:#000000;fill-opacity:1;stroke:none;stroke-width:2.00050449;stroke-miterlimit:4;stroke-dasharray:none;stroke-opacity:1"
           inkscape:export-xdpi="90"
           inkscape:export-ydpi="90" />
        <ellipse
           transform="matrix(0.98259884,-0.18574048,0.16413294,0.98643823,0,0)"
           ry="24.520384"
           rx="19.06193"
           cy="549.39685"
           cx="-677.44598"
           id="ellipse5034"
           style="opacity:1;fill:#000000;fill-opacity:1;stroke:none;stroke-width:2.0002408;stroke-miterlimit:4;stroke-dasharray:none;stroke-opacity:1"
           inkscape:export-xdpi="90"
           inkscape:export-ydpi="90" />
        <ellipse
           style="opacity:1;fill:#000000;fill-opacity:1;stroke:none;stroke-width:2.00082731;stroke-miterlimit:4;stroke-dasharray:none;stroke-opacity:1"
           id="ellipse5036"
           cx="-347.46909"
           cy="760.45111"
           rx="17.456211"
           ry="22.282764"
           transform="matrix(0.95173808,0.30691142,-0.26796601,0.96342837,0,0)"
           inkscape:export-xdpi="90"
           inkscape:export-ydpi="90" />
        <ellipse
           transform="matrix(0.91254252,0.40898184,-0.33941612,0.94063633,0,0)"
           ry="15.358564"
           rx="12.662181"
           cy="1003.9371"
           cx="-202.3078"
           id="ellipse5038"
           style="opacity:1;fill:#000000;fill-opacity:1;stroke:none;stroke-width:2.00282025;stroke-miterlimit:4;stroke-dasharray:none;stroke-opacity:1"
           inkscape:export-xdpi="90"
           inkscape:export-ydpi="90" />
        <ellipse
           style="opacity:1;fill:#000000;fill-opacity:1;stroke:none;stroke-width:2.00150013;stroke-miterlimit:4;stroke-dasharray:none;stroke-opacity:1"
           id="ellipse5042"
           cx="-227.81099"
           cy="931.14886"
           rx="8.5576286"
           ry="10.446898"
           transform="matrix(0.91656124,0.39989436,-0.34913739,0.93707155,0,0)"
           inkscape:export-xdpi="90"
           inkscape:export-ydpi="90" />
        <ellipse
           transform="matrix(0.80676943,0.59086639,-0.62116841,0.7836771,0,0)"
           ry="16.123688"
           rx="11.648984"
           cy="922.98364"
           cx="73.364052"
           id="ellipse5044"
           style="opacity:1;fill:#000000;fill-opacity:1;stroke:none;stroke-width:2.00072622;stroke-miterlimit:4;stroke-dasharray:none;stroke-opacity:1"
           inkscape:export-xdpi="90"
           inkscape:export-ydpi="90" />
        <ellipse
           style="opacity:1;fill:#000000;fill-opacity:1;stroke:none;stroke-width:2.00132537;stroke-miterlimit:4;stroke-dasharray:none;stroke-opacity:1"
           id="ellipse5046"
           cx="-259.98138"
           cy="988.89166"
           rx="7.7447414"
           ry="9.4644089"
           transform="matrix(0.91720627,0.39841267,-0.35070312,0.93648669,0,0)"
           inkscape:export-xdpi="90"
           inkscape:export-ydpi="90" />
        <ellipse
           transform="matrix(0.9367164,0.3500891,-0.39899431,0.9169534,0,0)"
           ry="10.458662"
           rx="8.2798738"
           cy="896.7757"
           cx="-204.78972"
           id="ellipse5048"
           style="opacity:1;fill:#000000;fill-opacity:1;stroke:none;stroke-width:2.0013926;stroke-miterlimit:4;stroke-dasharray:none;stroke-opacity:1"
           inkscape:export-xdpi="90"
           inkscape:export-ydpi="90" />
        <ellipse
           style="opacity:1;fill:#000000;fill-opacity:1;stroke:none;stroke-width:2.00003886;stroke-miterlimit:4;stroke-dasharray:none;stroke-opacity:1"
           id="ellipse5051"
           cx="-893.58807"
           cy="-29.439495"
           rx="13.798407"
           ry="17.092049"
           transform="matrix(0.57925744,-0.81514466,0.82021855,0.57205029,0,0)"
           inkscape:export-xdpi="90"
           inkscape:export-ydpi="90" />
        <ellipse
           style="opacity:1;fill:#000000;fill-opacity:1;stroke:none;stroke-width:2.01142359;stroke-miterlimit:4;stroke-dasharray:none;stroke-opacity:1"
           id="ellipse5053"
           cx="-371.31854"
           cy="713.93542"
           rx="16.78549"
           ry="20.203131"
           transform="matrix(0.99777323,0.0666977,-0.21568964,0.97646197,0,0)"
           inkscape:export-xdpi="90"
           inkscape:export-ydpi="90" />
        <ellipse
           style="opacity:1;fill:#000000;fill-opacity:1;stroke:none;stroke-width:2.00003886;stroke-miterlimit:4;stroke-dasharray:none;stroke-opacity:1"
           id="ellipse5055"
           cx="-893.58807"
           cy="-29.439495"
           rx="13.798407"
           ry="17.092049"
           transform="matrix(0.57925744,-0.81514466,0.82021855,0.57205029,0,0)"
           inkscape:export-xdpi="90"
           inkscape:export-ydpi="90" />
        <ellipse
           transform="matrix(0.92541588,0.3789531,-0.37078179,0.92872001,0,0)"
           ry="17.092049"
           rx="13.798407"
           cy="962.39917"
           cx="-167.43236"
           id="ellipse5057"
           style="opacity:1;fill:#000000;fill-opacity:1;stroke:none;stroke-width:2.00003886;stroke-miterlimit:4;stroke-dasharray:none;stroke-opacity:1"
           inkscape:export-xdpi="90"
           inkscape:export-ydpi="90" />
        <ellipse
           style="opacity:1;fill:#000000;fill-opacity:1;stroke:none;stroke-width:2.00014114;stroke-miterlimit:4;stroke-dasharray:none;stroke-opacity:1"
           id="ellipse5059"
           cx="-927.82776"
           cy="-210.44659"
           rx="10.614202"
           ry="13.114493"
           transform="matrix(0.38262937,-0.92390192,0.93019875,0.36705625,0,0)"
           inkscape:export-xdpi="90"
           inkscape:export-ydpi="90" />
        <ellipse
           transform="matrix(0.95060805,0.31039384,-0.32036267,0.94729497,0,0)"
           ry="14.981911"
           rx="11.952662"
           cy="829.04956"
           cx="-306.26114"
           id="ellipse5061"
           style="opacity:1;fill:#000000;fill-opacity:1;stroke:none;stroke-width:2.00005507;stroke-miterlimit:4;stroke-dasharray:none;stroke-opacity:1"
           inkscape:export-xdpi="90"
           inkscape:export-ydpi="90" />
        <ellipse
           transform="matrix(0.25571165,-0.9667531,0.92800964,0.37255617,0,0)"
           ry="13.615391"
           rx="10.641771"
           cy="-310.34183"
           cx="-956.10651"
           id="ellipse5063"
           style="opacity:1;fill:#000000;fill-opacity:1;stroke:none;stroke-width:2.0076201;stroke-miterlimit:4;stroke-dasharray:none;stroke-opacity:1"
           inkscape:export-xdpi="90"
           inkscape:export-ydpi="90" />
        <ellipse
           transform="matrix(0.91152472,0.41124529,-0.33696281,0.94151796,0,0)"
           ry="14.504801"
           rx="11.977588"
           cy="861.84106"
           cx="-240.465"
           id="ellipse5065"
           style="opacity:1;fill:#000000;fill-opacity:1;stroke:none;stroke-width:2.00321651;stroke-miterlimit:4;stroke-dasharray:none;stroke-opacity:1"
           inkscape:export-xdpi="90"
           inkscape:export-ydpi="90" />
        <ellipse
           style="opacity:1;fill:#000000;fill-opacity:1;stroke:none;stroke-width:2.00001287;stroke-miterlimit:4;stroke-dasharray:none;stroke-opacity:1"
           id="ellipse5067"
           cx="-247.1478"
           cy="888.71552"
           rx="9.1060905"
           ry="11.329561"
           transform="matrix(0.92802444,0.37251932,-0.37722807,0.92612039,0,0)"
           inkscape:export-xdpi="90"
           inkscape:export-ydpi="90" />
        <ellipse
           transform="matrix(0.60463342,-0.79650387,0.79650387,0.60463342,0,0)"
           ry="16.479977"
           rx="13.267093"
           cy="55.612698"
           cx="-1026.0741"
           id="ellipse5069"
           style="opacity:1;fill:#000000;fill-opacity:1;stroke:none;stroke-width:2;stroke-miterlimit:4;stroke-dasharray:none;stroke-opacity:1"
           inkscape:export-xdpi="90"
           inkscape:export-ydpi="90" />
        <ellipse
           style="opacity:1;fill:#000000;fill-opacity:1;stroke:none;stroke-width:2;stroke-miterlimit:4;stroke-dasharray:none;stroke-opacity:1"
           id="ellipse5071"
           cx="-216.25356"
           cy="962.95642"
           rx="13.267093"
           ry="16.479975"
           transform="matrix(0.92707463,0.37487682,-0.37487682,0.92707463,0,0)"
           inkscape:export-xdpi="90"
           inkscape:export-ydpi="90" />
        <ellipse
           style="opacity:1;fill:#000000;fill-opacity:1;stroke:none;stroke-width:2.00370264;stroke-miterlimit:4;stroke-dasharray:none;stroke-opacity:1"
           id="ellipse5073"
           cx="-186.60728"
           cy="900.17859"
           rx="13.181558"
           ry="17.839489"
           transform="matrix(0.87907817,0.47667763,-0.39944366,0.91675774,0,0)"
           inkscape:export-xdpi="90"
           inkscape:export-ydpi="90" />
        <ellipse
           transform="matrix(0.92754179,0.37371945,-0.37603267,0.92660641,0,0)"
           ry="14.537494"
           rx="11.694043"
           cy="979.96167"
           cx="-191.05258"
           id="ellipse5075"
           style="opacity:1;fill:#000000;fill-opacity:1;stroke:none;stroke-width:2.0000031;stroke-miterlimit:4;stroke-dasharray:none;stroke-opacity:1"
           inkscape:export-xdpi="90"
           inkscape:export-ydpi="90" />
        <ellipse
           transform="matrix(0.95173808,0.30691142,-0.26796601,0.96342837,0,0)"
           ry="22.282764"
           rx="17.456211"
           cy="760.45111"
           cx="-347.46909"
           id="ellipse5077"
           style="opacity:1;fill:#000000;fill-opacity:1;stroke:none;stroke-width:2.00082731;stroke-miterlimit:4;stroke-dasharray:none;stroke-opacity:1"
           inkscape:export-xdpi="90"
           inkscape:export-ydpi="90" />
        <ellipse
           style="opacity:1;fill:#000000;fill-opacity:1;stroke:none;stroke-width:2.00282025;stroke-miterlimit:4;stroke-dasharray:none;stroke-opacity:1"
           id="ellipse5079"
           cx="-202.3078"
           cy="1003.9371"
           rx="12.662181"
           ry="15.358564"
           transform="matrix(0.91254252,0.40898184,-0.33941612,0.94063633,0,0)"
           inkscape:export-xdpi="90"
           inkscape:export-ydpi="90" />
        <ellipse
           transform="matrix(0.91656124,0.39989436,-0.34913739,0.93707155,0,0)"
           ry="10.446898"
           rx="8.5576286"
           cy="931.14886"
           cx="-227.81099"
           id="ellipse5081"
           style="opacity:1;fill:#000000;fill-opacity:1;stroke:none;stroke-width:2.00150013;stroke-miterlimit:4;stroke-dasharray:none;stroke-opacity:1"
           inkscape:export-xdpi="90"
           inkscape:export-ydpi="90" />
        <ellipse
           style="opacity:1;fill:#000000;fill-opacity:1;stroke:none;stroke-width:2.00072622;stroke-miterlimit:4;stroke-dasharray:none;stroke-opacity:1"
           id="ellipse5083"
           cx="73.364052"
           cy="922.98364"
           rx="11.648984"
           ry="16.123688"
           transform="matrix(0.80676943,0.59086639,-0.62116841,0.7836771,0,0)"
           inkscape:export-xdpi="90"
           inkscape:export-ydpi="90" />
        <ellipse
           style="opacity:1;fill:#000000;fill-opacity:1;stroke:none;stroke-width:2.0013926;stroke-miterlimit:4;stroke-dasharray:none;stroke-opacity:1"
           id="ellipse5085"
           cx="-204.78972"
           cy="896.7757"
           rx="8.2798738"
           ry="10.458662"
           transform="matrix(0.9367164,0.3500891,-0.39899431,0.9169534,0,0)"
           inkscape:export-xdpi="90"
           inkscape:export-ydpi="90" />
        <ellipse
           transform="matrix(0.57925744,-0.81514466,0.82021855,0.57205029,0,0)"
           ry="17.092049"
           rx="13.798407"
           cy="-29.439495"
           cx="-893.58807"
           id="ellipse5087"
           style="opacity:1;fill:#000000;fill-opacity:1;stroke:none;stroke-width:2.00003886;stroke-miterlimit:4;stroke-dasharray:none;stroke-opacity:1"
           inkscape:export-xdpi="90"
           inkscape:export-ydpi="90" />
        <ellipse
           style="opacity:1;fill:#000000;fill-opacity:1;stroke:none;stroke-width:2.00008273;stroke-miterlimit:4;stroke-dasharray:none;stroke-opacity:1"
           id="ellipse5089"
           cx="-337.70764"
           cy="865.20349"
           rx="14.867653"
           ry="18.556259"
           transform="matrix(0.94691618,0.32148055,-0.30926679,0.95097532,0,0)"
           inkscape:export-xdpi="90"
           inkscape:export-ydpi="90" />
        <path
           style="fill:#000000;fill-opacity:1;fill-rule:evenodd;stroke:none;stroke-width:1;stroke-linecap:butt;stroke-linejoin:miter;stroke-miterlimit:4;stroke-dasharray:none;stroke-opacity:1"
           d="m -541.67162,845.51862 11.09378,-2.3142 c 0,0 -10.74722,18.3609 -14.16715,26.8583 -3.08489,7.6652 -5.52051,15.168 -5.65198,21.5711 -0.13477,6.5914 2.8908,11.5842 5.01424,17.0025 2.18671,5.5794 5.61563,10.4537 7.95009,15.9503 1.38732,3.267 3.47059,6.1839 3.59717,10.1165 0.0384,1.2314 0.8321,2.3772 -0.89135,4.1596 -1.37878,1.4267 -4.0799,3.0091 -6.1204,3.7417 -2.73192,0.9809 -5.00932,0.8529 -6.02806,0.097 -1.36295,-1.0103 0.82782,-3.9808 0.60655,-5.6623 -2.00713,-15.2366 -16.01416,-24.0154 -17.45966,-39.538 -0.36879,-3.9597 0.52275,-8.5746 2.25987,-13.477 4.24794,-11.9876 19.7969,-38.5055 19.7969,-38.5055 z"
           id="path5091"
           inkscape:connector-curvature="0"
           sodipodi:nodetypes="ccsssssssssssc"
           inkscape:export-xdpi="90"
           inkscape:export-ydpi="90" />
        <ellipse
           transform="matrix(0.99777323,0.0666977,-0.21568964,0.97646197,0,0)"
           ry="20.203131"
           rx="16.78549"
           cy="713.93542"
           cx="-371.31854"
           id="ellipse5093"
           style="opacity:1;fill:#000000;fill-opacity:1;stroke:none;stroke-width:2.01142359;stroke-miterlimit:4;stroke-dasharray:none;stroke-opacity:1"
           inkscape:export-xdpi="90"
           inkscape:export-ydpi="90" />
        <ellipse
           transform="matrix(0.57925744,-0.81514466,0.82021855,0.57205029,0,0)"
           ry="17.092049"
           rx="13.798407"
           cy="-29.439495"
           cx="-893.58795"
           id="ellipse5095"
           style="opacity:1;fill:#000000;fill-opacity:1;stroke:none;stroke-width:2.00003886;stroke-miterlimit:4;stroke-dasharray:none;stroke-opacity:1"
           inkscape:export-xdpi="90"
           inkscape:export-ydpi="90" />
        <ellipse
           style="opacity:1;fill:#000000;fill-opacity:1;stroke:none;stroke-width:2.00003886;stroke-miterlimit:4;stroke-dasharray:none;stroke-opacity:1"
           id="ellipse5097"
           cx="-167.43236"
           cy="962.39917"
           rx="13.798407"
           ry="17.092049"
           transform="matrix(0.92541588,0.3789531,-0.37078179,0.92872001,0,0)"
           inkscape:export-xdpi="90"
           inkscape:export-ydpi="90" />
        <ellipse
           transform="matrix(0.38262937,-0.92390192,0.93019875,0.36705625,0,0)"
           ry="13.114493"
           rx="10.614202"
           cy="-210.44659"
           cx="-927.82776"
           id="ellipse5099"
           style="opacity:1;fill:#000000;fill-opacity:1;stroke:none;stroke-width:2.00014114;stroke-miterlimit:4;stroke-dasharray:none;stroke-opacity:1"
           inkscape:export-xdpi="90"
           inkscape:export-ydpi="90" />
        <ellipse
           style="opacity:1;fill:#000000;fill-opacity:1;stroke:none;stroke-width:2.00014114;stroke-miterlimit:4;stroke-dasharray:none;stroke-opacity:1"
           id="ellipse5101"
           cx="-949.27258"
           cy="-238.92889"
           rx="10.614202"
           ry="13.114493"
           transform="matrix(0.38262937,-0.92390192,0.93019875,0.36705625,0,0)"
           inkscape:export-xdpi="90"
           inkscape:export-ydpi="90" />
        <ellipse
           style="opacity:1;fill:#000000;fill-opacity:1;stroke:none;stroke-width:2.00005507;stroke-miterlimit:4;stroke-dasharray:none;stroke-opacity:1"
           id="ellipse5103"
           cx="-306.26114"
           cy="829.04956"
           rx="11.952662"
           ry="14.981911"
           transform="matrix(0.95060805,0.31039384,-0.32036267,0.94729497,0,0)"
           inkscape:export-xdpi="90"
           inkscape:export-ydpi="90" />
        <ellipse
           style="opacity:1;fill:#000000;fill-opacity:1;stroke:none;stroke-width:2.0076201;stroke-miterlimit:4;stroke-dasharray:none;stroke-opacity:1"
           id="ellipse5105"
           cx="-956.10651"
           cy="-310.34183"
           rx="10.641771"
           ry="13.615391"
           transform="matrix(0.25571165,-0.9667531,0.92800964,0.37255617,0,0)"
           inkscape:export-xdpi="90"
           inkscape:export-ydpi="90" />
        <ellipse
           style="opacity:1;fill:#000000;fill-opacity:1;stroke:none;stroke-width:2.00321651;stroke-miterlimit:4;stroke-dasharray:none;stroke-opacity:1"
           id="ellipse5107"
           cx="-240.465"
           cy="861.84106"
           rx="11.977588"
           ry="14.504801"
           transform="matrix(0.91152472,0.41124529,-0.33696281,0.94151796,0,0)"
           inkscape:export-xdpi="90"
           inkscape:export-ydpi="90" />
        <ellipse
           transform="matrix(0.92802444,0.37251932,-0.37722807,0.92612039,0,0)"
           ry="11.329561"
           rx="9.1060905"
           cy="888.71552"
           cx="-247.1478"
           id="ellipse5109"
           style="opacity:1;fill:#000000;fill-opacity:1;stroke:none;stroke-width:2.00001287;stroke-miterlimit:4;stroke-dasharray:none;stroke-opacity:1"
           inkscape:export-xdpi="90"
           inkscape:export-ydpi="90" />
        <ellipse
           style="opacity:1;fill:#000000;fill-opacity:1;stroke:none;stroke-width:2;stroke-miterlimit:4;stroke-dasharray:none;stroke-opacity:1"
           id="ellipse5111"
           cx="-1026.0741"
           cy="55.612698"
           rx="13.267093"
           ry="16.479977"
           transform="matrix(0.60463342,-0.79650387,0.79650387,0.60463342,0,0)"
           inkscape:export-xdpi="90"
           inkscape:export-ydpi="90" />
        <ellipse
           transform="matrix(0.92707463,0.37487682,-0.37487682,0.92707463,0,0)"
           ry="16.479975"
           rx="13.267093"
           cy="962.95642"
           cx="-216.25343"
           id="ellipse5113"
           style="opacity:1;fill:#000000;fill-opacity:1;stroke:none;stroke-width:2;stroke-miterlimit:4;stroke-dasharray:none;stroke-opacity:1"
           inkscape:export-xdpi="90"
           inkscape:export-ydpi="90" />
        <ellipse
           transform="matrix(0.87907817,0.47667763,-0.39944366,0.91675774,0,0)"
           ry="17.839489"
           rx="13.181558"
           cy="900.17859"
           cx="-186.60728"
           id="ellipse5115"
           style="opacity:1;fill:#000000;fill-opacity:1;stroke:none;stroke-width:2.00370264;stroke-miterlimit:4;stroke-dasharray:none;stroke-opacity:1"
           inkscape:export-xdpi="90"
           inkscape:export-ydpi="90" />
        <ellipse
           style="opacity:1;fill:#000000;fill-opacity:1;stroke:none;stroke-width:2.0000031;stroke-miterlimit:4;stroke-dasharray:none;stroke-opacity:1"
           id="ellipse5117"
           cx="-191.05258"
           cy="979.96167"
           rx="11.694043"
           ry="14.537494"
           transform="matrix(0.92754179,0.37371945,-0.37603267,0.92660641,0,0)"
           inkscape:export-xdpi="90"
           inkscape:export-ydpi="90" />
        <ellipse
           transform="matrix(0.93293958,0.36003297,-0.38947763,0.92103592,0,0)"
           ry="19.062197"
           rx="15.191921"
           cy="916.51733"
           cx="-237.71373"
           id="ellipse5119"
           style="opacity:1;fill:#000000;fill-opacity:1;stroke:none;stroke-width:2.00050449;stroke-miterlimit:4;stroke-dasharray:none;stroke-opacity:1"
           inkscape:export-xdpi="90"
           inkscape:export-ydpi="90" />
        <ellipse
           transform="matrix(0.98259884,-0.18574048,0.16413294,0.98643823,0,0)"
           ry="24.520384"
           rx="19.06193"
           cy="549.39685"
           cx="-677.44598"
           id="ellipse5121"
           style="opacity:1;fill:#000000;fill-opacity:1;stroke:none;stroke-width:2.0002408;stroke-miterlimit:4;stroke-dasharray:none;stroke-opacity:1"
           inkscape:export-xdpi="90"
           inkscape:export-ydpi="90" />
        <ellipse
           style="opacity:1;fill:#000000;fill-opacity:1;stroke:none;stroke-width:2.00082731;stroke-miterlimit:4;stroke-dasharray:none;stroke-opacity:1"
           id="ellipse5123"
           cx="-347.46909"
           cy="760.45111"
           rx="17.456211"
           ry="22.282764"
           transform="matrix(0.95173808,0.30691142,-0.26796601,0.96342837,0,0)"
           inkscape:export-xdpi="90"
           inkscape:export-ydpi="90" />
        <ellipse
           transform="matrix(0.91254252,0.40898184,-0.33941612,0.94063633,0,0)"
           ry="15.358564"
           rx="12.662181"
           cy="1003.9371"
           cx="-202.3078"
           id="ellipse5125"
           style="opacity:1;fill:#000000;fill-opacity:1;stroke:none;stroke-width:2.00282025;stroke-miterlimit:4;stroke-dasharray:none;stroke-opacity:1"
           inkscape:export-xdpi="90"
           inkscape:export-ydpi="90" />
        <ellipse
           style="opacity:1;fill:#000000;fill-opacity:1;stroke:none;stroke-width:2.00150013;stroke-miterlimit:4;stroke-dasharray:none;stroke-opacity:1"
           id="ellipse5127"
           cx="-227.81099"
           cy="931.14886"
           rx="8.5576286"
           ry="10.446898"
           transform="matrix(0.91656124,0.39989436,-0.34913739,0.93707155,0,0)"
           inkscape:export-xdpi="90"
           inkscape:export-ydpi="90" />
        <ellipse
           transform="matrix(0.80676943,0.59086639,-0.62116841,0.7836771,0,0)"
           ry="16.123688"
           rx="11.648984"
           cy="922.98364"
           cx="73.364052"
           id="ellipse5129"
           style="opacity:1;fill:#000000;fill-opacity:1;stroke:none;stroke-width:2.00072622;stroke-miterlimit:4;stroke-dasharray:none;stroke-opacity:1"
           inkscape:export-xdpi="90"
           inkscape:export-ydpi="90" />
        <ellipse
           style="opacity:1;fill:#000000;fill-opacity:1;stroke:none;stroke-width:2.00132537;stroke-miterlimit:4;stroke-dasharray:none;stroke-opacity:1"
           id="ellipse5131"
           cx="-259.98138"
           cy="988.89166"
           rx="7.7447414"
           ry="9.4644089"
           transform="matrix(0.91720627,0.39841267,-0.35070312,0.93648669,0,0)"
           inkscape:export-xdpi="90"
           inkscape:export-ydpi="90" />
        <ellipse
           transform="matrix(0.9367164,0.3500891,-0.39899431,0.9169534,0,0)"
           ry="10.458662"
           rx="8.2798738"
           cy="896.7757"
           cx="-204.78972"
           id="ellipse5133"
           style="opacity:1;fill:#000000;fill-opacity:1;stroke:none;stroke-width:2.0013926;stroke-miterlimit:4;stroke-dasharray:none;stroke-opacity:1"
           inkscape:export-xdpi="90"
           inkscape:export-ydpi="90" />
        <ellipse
           style="opacity:1;fill:#000000;fill-opacity:1;stroke:none;stroke-width:2.00003886;stroke-miterlimit:4;stroke-dasharray:none;stroke-opacity:1"
           id="ellipse5137"
           cx="-893.58795"
           cy="-29.439495"
           rx="13.798407"
           ry="17.092049"
           transform="matrix(0.57925744,-0.81514466,0.82021855,0.57205029,0,0)"
           inkscape:export-xdpi="90"
           inkscape:export-ydpi="90" />
        <ellipse
           style="opacity:1;fill:#000000;fill-opacity:1;stroke:none;stroke-width:2.01142359;stroke-miterlimit:4;stroke-dasharray:none;stroke-opacity:1"
           id="ellipse5139"
           cx="-371.31854"
           cy="713.93542"
           rx="16.78549"
           ry="20.203131"
           transform="matrix(0.99777323,0.0666977,-0.21568964,0.97646197,0,0)"
           inkscape:export-xdpi="90"
           inkscape:export-ydpi="90" />
        <ellipse
           style="opacity:1;fill:#000000;fill-opacity:1;stroke:none;stroke-width:2.00003886;stroke-miterlimit:4;stroke-dasharray:none;stroke-opacity:1"
           id="ellipse5141"
           cx="-893.58795"
           cy="-29.439495"
           rx="13.798407"
           ry="17.092049"
           transform="matrix(0.57925744,-0.81514466,0.82021855,0.57205029,0,0)"
           inkscape:export-xdpi="90"
           inkscape:export-ydpi="90" />
        <ellipse
           transform="matrix(0.92541588,0.3789531,-0.37078179,0.92872001,0,0)"
           ry="17.092049"
           rx="13.798407"
           cy="962.39917"
           cx="-167.43236"
           id="ellipse5143"
           style="opacity:1;fill:#000000;fill-opacity:1;stroke:none;stroke-width:2.00003886;stroke-miterlimit:4;stroke-dasharray:none;stroke-opacity:1"
           inkscape:export-xdpi="90"
           inkscape:export-ydpi="90" />
        <ellipse
           style="opacity:1;fill:#000000;fill-opacity:1;stroke:none;stroke-width:2.00014114;stroke-miterlimit:4;stroke-dasharray:none;stroke-opacity:1"
           id="ellipse5214"
           cx="-927.82776"
           cy="-210.44659"
           rx="10.614202"
           ry="13.114493"
           transform="matrix(0.38262937,-0.92390192,0.93019875,0.36705625,0,0)"
           inkscape:export-xdpi="90"
           inkscape:export-ydpi="90" />
        <ellipse
           transform="matrix(0.95060805,0.31039384,-0.32036267,0.94729497,0,0)"
           ry="14.981911"
           rx="11.952662"
           cy="829.04956"
           cx="-306.26114"
           id="ellipse5216"
           style="opacity:1;fill:#000000;fill-opacity:1;stroke:none;stroke-width:2.00005507;stroke-miterlimit:4;stroke-dasharray:none;stroke-opacity:1"
           inkscape:export-xdpi="90"
           inkscape:export-ydpi="90" />
        <ellipse
           transform="matrix(0.25571165,-0.9667531,0.92800964,0.37255617,0,0)"
           ry="13.615391"
           rx="10.641771"
           cy="-310.34183"
           cx="-956.10651"
           id="ellipse5218"
           style="opacity:1;fill:#000000;fill-opacity:1;stroke:none;stroke-width:2.0076201;stroke-miterlimit:4;stroke-dasharray:none;stroke-opacity:1"
           inkscape:export-xdpi="90"
           inkscape:export-ydpi="90" />
        <ellipse
           transform="matrix(0.91152472,0.41124529,-0.33696281,0.94151796,0,0)"
           ry="14.504801"
           rx="11.977588"
           cy="861.84106"
           cx="-240.465"
           id="ellipse5220"
           style="opacity:1;fill:#000000;fill-opacity:1;stroke:none;stroke-width:2.00321651;stroke-miterlimit:4;stroke-dasharray:none;stroke-opacity:1"
           inkscape:export-xdpi="90"
           inkscape:export-ydpi="90" />
        <ellipse
           style="opacity:1;fill:#000000;fill-opacity:1;stroke:none;stroke-width:2.00001287;stroke-miterlimit:4;stroke-dasharray:none;stroke-opacity:1"
           id="ellipse5222"
           cx="-247.1478"
           cy="888.71552"
           rx="9.1060905"
           ry="11.329561"
           transform="matrix(0.92802444,0.37251932,-0.37722807,0.92612039,0,0)"
           inkscape:export-xdpi="90"
           inkscape:export-ydpi="90" />
        <ellipse
           transform="matrix(0.60463342,-0.79650387,0.79650387,0.60463342,0,0)"
           ry="16.479977"
           rx="13.267093"
           cy="55.612698"
           cx="-1026.0741"
           id="ellipse5224"
           style="opacity:1;fill:#000000;fill-opacity:1;stroke:none;stroke-width:2;stroke-miterlimit:4;stroke-dasharray:none;stroke-opacity:1"
           inkscape:export-xdpi="90"
           inkscape:export-ydpi="90" />
        <ellipse
           style="opacity:1;fill:#000000;fill-opacity:1;stroke:none;stroke-width:2;stroke-miterlimit:4;stroke-dasharray:none;stroke-opacity:1"
           id="ellipse5226"
           cx="-216.25343"
           cy="962.95642"
           rx="13.267093"
           ry="16.479975"
           transform="matrix(0.92707463,0.37487682,-0.37487682,0.92707463,0,0)"
           inkscape:export-xdpi="90"
           inkscape:export-ydpi="90" />
        <ellipse
           style="opacity:1;fill:#000000;fill-opacity:1;stroke:none;stroke-width:2.00370264;stroke-miterlimit:4;stroke-dasharray:none;stroke-opacity:1"
           id="ellipse5228"
           cx="-186.60728"
           cy="900.17859"
           rx="13.181558"
           ry="17.839489"
           transform="matrix(0.87907817,0.47667763,-0.39944366,0.91675774,0,0)"
           inkscape:export-xdpi="90"
           inkscape:export-ydpi="90" />
        <ellipse
           transform="matrix(0.92754179,0.37371945,-0.37603267,0.92660641,0,0)"
           ry="14.537494"
           rx="11.694043"
           cy="979.96167"
           cx="-191.05258"
           id="ellipse5230"
           style="opacity:1;fill:#000000;fill-opacity:1;stroke:none;stroke-width:2.0000031;stroke-miterlimit:4;stroke-dasharray:none;stroke-opacity:1"
           inkscape:export-xdpi="90"
           inkscape:export-ydpi="90" />
        <ellipse
           transform="matrix(0.95173808,0.30691142,-0.26796601,0.96342837,0,0)"
           ry="22.282764"
           rx="17.456211"
           cy="760.45111"
           cx="-347.46909"
           id="ellipse5232"
           style="opacity:1;fill:#000000;fill-opacity:1;stroke:none;stroke-width:2.00082731;stroke-miterlimit:4;stroke-dasharray:none;stroke-opacity:1"
           inkscape:export-xdpi="90"
           inkscape:export-ydpi="90" />
        <ellipse
           style="opacity:1;fill:#000000;fill-opacity:1;stroke:none;stroke-width:2.00282025;stroke-miterlimit:4;stroke-dasharray:none;stroke-opacity:1"
           id="ellipse5234"
           cx="-202.3078"
           cy="1003.9371"
           rx="12.662181"
           ry="15.358564"
           transform="matrix(0.91254252,0.40898184,-0.33941612,0.94063633,0,0)"
           inkscape:export-xdpi="90"
           inkscape:export-ydpi="90" />
        <ellipse
           transform="matrix(0.91656124,0.39989436,-0.34913739,0.93707155,0,0)"
           ry="10.446898"
           rx="8.5576286"
           cy="931.14886"
           cx="-227.81099"
           id="ellipse5236"
           style="opacity:1;fill:#000000;fill-opacity:1;stroke:none;stroke-width:2.00150013;stroke-miterlimit:4;stroke-dasharray:none;stroke-opacity:1"
           inkscape:export-xdpi="90"
           inkscape:export-ydpi="90" />
        <ellipse
           style="opacity:1;fill:#000000;fill-opacity:1;stroke:none;stroke-width:2.00072622;stroke-miterlimit:4;stroke-dasharray:none;stroke-opacity:1"
           id="ellipse5238"
           cx="73.364052"
           cy="922.98364"
           rx="11.648984"
           ry="16.123688"
           transform="matrix(0.80676943,0.59086639,-0.62116841,0.7836771,0,0)"
           inkscape:export-xdpi="90"
           inkscape:export-ydpi="90" />
        <ellipse
           style="opacity:1;fill:#000000;fill-opacity:1;stroke:none;stroke-width:2.0013926;stroke-miterlimit:4;stroke-dasharray:none;stroke-opacity:1"
           id="ellipse5240"
           cx="-204.78972"
           cy="896.7757"
           rx="8.2798738"
           ry="10.458662"
           transform="matrix(0.9367164,0.3500891,-0.39899431,0.9169534,0,0)"
           inkscape:export-xdpi="90"
           inkscape:export-ydpi="90" />
        <ellipse
           transform="matrix(0.57925744,-0.81514466,0.82021855,0.57205029,0,0)"
           ry="17.092049"
           rx="13.798407"
           cy="-29.439495"
           cx="-893.58795"
           id="ellipse5242"
           style="opacity:1;fill:#000000;fill-opacity:1;stroke:none;stroke-width:2.00003886;stroke-miterlimit:4;stroke-dasharray:none;stroke-opacity:1"
           inkscape:export-xdpi="90"
           inkscape:export-ydpi="90" />
      </g>
      <g
         id="g5244"
         transform="matrix(1.4057326,0,0,1.4057326,-60.931257,-207.56911)"
         style="fill:#000000" />
    </g>
  </g>
</svg>
